<svg width="967" height="889" viewBox="0 0 967 889" fill="none" xmlns="http://www.w3.org/2000/svg">
<path d="M533.619 377.681L373.499 58.9996C259.229 96.6964 210.331 138.208 146 229.5C78.1611 347.847 77.4589 409.946 88.3444 511.462C160.76 366.65 213.56 294.363 345.215 192.779L487.341 449.574L746.723 451.232C710.094 667.164 669.462 734.874 588.652 833.513C695.55 792.537 749.84 757.077 818.998 663.5C877.149 575.407 894.013 497.048 878.499 377.681L533.619 377.681Z" fill="#FFC700"/>
<path d="M629.298 74.5051C101.078 208.211 -4.75854 1348.31 744.8 450.505C230.972 861.945 267.492 360.571 629.298 74.5051Z" fill="#039BE5" stroke="#039BE5"/>
</svg>
